<mxfile host="Electron" modified="2023-11-14T17:51:50.587Z" agent="Mozilla/5.0 (Windows NT 10.0; Win64; x64) AppleWebKit/537.36 (KHTML, like Gecko) draw.io/22.0.3 Chrome/114.0.5735.289 Electron/25.8.4 Safari/537.36" etag="gYFNTj4REPSSe4tgpGDh" version="22.0.3" type="device">
  <diagram id="C5RBs43oDa-KdzZeNtuy" name="Page-1">
    <mxGraphModel dx="720" dy="1632" grid="1" gridSize="10" guides="1" tooltips="1" connect="1" arrows="1" fold="1" page="1" pageScale="1" pageWidth="827" pageHeight="1169" math="0" shadow="0">
      <root>
        <mxCell id="WIyWlLk6GJQsqaUBKTNV-0" />
        <mxCell id="WIyWlLk6GJQsqaUBKTNV-1" parent="WIyWlLk6GJQsqaUBKTNV-0" />
        <mxCell id="SE0FPp_Iixvpx1Xtsyte-2" style="edgeStyle=orthogonalEdgeStyle;rounded=0;orthogonalLoop=1;jettySize=auto;html=1;" edge="1" parent="WIyWlLk6GJQsqaUBKTNV-1" source="SE0FPp_Iixvpx1Xtsyte-0" target="SE0FPp_Iixvpx1Xtsyte-1">
          <mxGeometry relative="1" as="geometry" />
        </mxCell>
        <mxCell id="SE0FPp_Iixvpx1Xtsyte-0" value="start" style="ellipse;whiteSpace=wrap;html=1;" vertex="1" parent="WIyWlLk6GJQsqaUBKTNV-1">
          <mxGeometry x="354" y="-450" width="120" height="80" as="geometry" />
        </mxCell>
        <mxCell id="SE0FPp_Iixvpx1Xtsyte-6" style="edgeStyle=orthogonalEdgeStyle;rounded=0;orthogonalLoop=1;jettySize=auto;html=1;entryX=0.5;entryY=0;entryDx=0;entryDy=0;" edge="1" parent="WIyWlLk6GJQsqaUBKTNV-1" source="SE0FPp_Iixvpx1Xtsyte-1" target="SE0FPp_Iixvpx1Xtsyte-5">
          <mxGeometry relative="1" as="geometry" />
        </mxCell>
        <mxCell id="SE0FPp_Iixvpx1Xtsyte-1" value="row ,col,sum=0" style="shape=parallelogram;perimeter=parallelogramPerimeter;whiteSpace=wrap;html=1;fixedSize=1;" vertex="1" parent="WIyWlLk6GJQsqaUBKTNV-1">
          <mxGeometry x="354" y="-300" width="120" height="60" as="geometry" />
        </mxCell>
        <mxCell id="SE0FPp_Iixvpx1Xtsyte-5" value="i=0" style="rounded=1;whiteSpace=wrap;html=1;" vertex="1" parent="WIyWlLk6GJQsqaUBKTNV-1">
          <mxGeometry x="360" y="-120" width="120" height="60" as="geometry" />
        </mxCell>
        <mxCell id="SE0FPp_Iixvpx1Xtsyte-11" style="edgeStyle=orthogonalEdgeStyle;rounded=0;orthogonalLoop=1;jettySize=auto;html=1;entryX=0.5;entryY=0;entryDx=0;entryDy=0;" edge="1" parent="WIyWlLk6GJQsqaUBKTNV-1" source="SE0FPp_Iixvpx1Xtsyte-7" target="SE0FPp_Iixvpx1Xtsyte-10">
          <mxGeometry relative="1" as="geometry" />
        </mxCell>
        <mxCell id="SE0FPp_Iixvpx1Xtsyte-21" value="true" style="edgeLabel;html=1;align=center;verticalAlign=middle;resizable=0;points=[];" vertex="1" connectable="0" parent="SE0FPp_Iixvpx1Xtsyte-11">
          <mxGeometry x="-0.1957" y="1" relative="1" as="geometry">
            <mxPoint as="offset" />
          </mxGeometry>
        </mxCell>
        <mxCell id="SE0FPp_Iixvpx1Xtsyte-20" style="edgeStyle=orthogonalEdgeStyle;rounded=0;orthogonalLoop=1;jettySize=auto;html=1;entryX=0;entryY=0.5;entryDx=0;entryDy=0;" edge="1" parent="WIyWlLk6GJQsqaUBKTNV-1" source="SE0FPp_Iixvpx1Xtsyte-7" target="SE0FPp_Iixvpx1Xtsyte-25">
          <mxGeometry relative="1" as="geometry">
            <mxPoint x="812.8571428571429" y="50" as="targetPoint" />
          </mxGeometry>
        </mxCell>
        <mxCell id="SE0FPp_Iixvpx1Xtsyte-24" value="false" style="edgeLabel;html=1;align=center;verticalAlign=middle;resizable=0;points=[];" vertex="1" connectable="0" parent="SE0FPp_Iixvpx1Xtsyte-20">
          <mxGeometry x="-0.2992" y="-1" relative="1" as="geometry">
            <mxPoint as="offset" />
          </mxGeometry>
        </mxCell>
        <mxCell id="SE0FPp_Iixvpx1Xtsyte-7" value="i&amp;lt;row" style="rhombus;whiteSpace=wrap;html=1;" vertex="1" parent="WIyWlLk6GJQsqaUBKTNV-1">
          <mxGeometry x="374" width="96" height="100" as="geometry" />
        </mxCell>
        <mxCell id="SE0FPp_Iixvpx1Xtsyte-9" style="edgeStyle=orthogonalEdgeStyle;rounded=0;orthogonalLoop=1;jettySize=auto;html=1;entryX=0.5;entryY=0;entryDx=0;entryDy=0;" edge="1" parent="WIyWlLk6GJQsqaUBKTNV-1" source="SE0FPp_Iixvpx1Xtsyte-5" target="SE0FPp_Iixvpx1Xtsyte-7">
          <mxGeometry relative="1" as="geometry" />
        </mxCell>
        <mxCell id="SE0FPp_Iixvpx1Xtsyte-10" value="j=0" style="rounded=1;whiteSpace=wrap;html=1;" vertex="1" parent="WIyWlLk6GJQsqaUBKTNV-1">
          <mxGeometry x="374" y="180" width="120" height="60" as="geometry" />
        </mxCell>
        <mxCell id="SE0FPp_Iixvpx1Xtsyte-15" style="edgeStyle=orthogonalEdgeStyle;rounded=0;orthogonalLoop=1;jettySize=auto;html=1;entryX=0.5;entryY=0;entryDx=0;entryDy=0;" edge="1" parent="WIyWlLk6GJQsqaUBKTNV-1" source="SE0FPp_Iixvpx1Xtsyte-12" target="SE0FPp_Iixvpx1Xtsyte-14">
          <mxGeometry relative="1" as="geometry" />
        </mxCell>
        <mxCell id="SE0FPp_Iixvpx1Xtsyte-22" value="true" style="edgeLabel;html=1;align=center;verticalAlign=middle;resizable=0;points=[];" vertex="1" connectable="0" parent="SE0FPp_Iixvpx1Xtsyte-15">
          <mxGeometry x="-0.2304" y="1" relative="1" as="geometry">
            <mxPoint as="offset" />
          </mxGeometry>
        </mxCell>
        <mxCell id="SE0FPp_Iixvpx1Xtsyte-17" style="edgeStyle=orthogonalEdgeStyle;rounded=0;orthogonalLoop=1;jettySize=auto;html=1;" edge="1" parent="WIyWlLk6GJQsqaUBKTNV-1" source="SE0FPp_Iixvpx1Xtsyte-12" target="SE0FPp_Iixvpx1Xtsyte-18">
          <mxGeometry relative="1" as="geometry">
            <mxPoint x="170" y="390" as="targetPoint" />
          </mxGeometry>
        </mxCell>
        <mxCell id="SE0FPp_Iixvpx1Xtsyte-23" value="false" style="edgeLabel;html=1;align=center;verticalAlign=middle;resizable=0;points=[];" vertex="1" connectable="0" parent="SE0FPp_Iixvpx1Xtsyte-17">
          <mxGeometry x="-0.0036" y="3" relative="1" as="geometry">
            <mxPoint as="offset" />
          </mxGeometry>
        </mxCell>
        <mxCell id="SE0FPp_Iixvpx1Xtsyte-12" value="j&amp;lt;col" style="rhombus;whiteSpace=wrap;html=1;" vertex="1" parent="WIyWlLk6GJQsqaUBKTNV-1">
          <mxGeometry x="380" y="330" width="150" height="120" as="geometry" />
        </mxCell>
        <mxCell id="SE0FPp_Iixvpx1Xtsyte-13" style="edgeStyle=orthogonalEdgeStyle;rounded=0;orthogonalLoop=1;jettySize=auto;html=1;entryX=0.438;entryY=0.088;entryDx=0;entryDy=0;entryPerimeter=0;" edge="1" parent="WIyWlLk6GJQsqaUBKTNV-1" source="SE0FPp_Iixvpx1Xtsyte-10" target="SE0FPp_Iixvpx1Xtsyte-12">
          <mxGeometry relative="1" as="geometry" />
        </mxCell>
        <mxCell id="SE0FPp_Iixvpx1Xtsyte-16" style="edgeStyle=orthogonalEdgeStyle;rounded=0;orthogonalLoop=1;jettySize=auto;html=1;" edge="1" parent="WIyWlLk6GJQsqaUBKTNV-1" source="SE0FPp_Iixvpx1Xtsyte-14">
          <mxGeometry relative="1" as="geometry">
            <mxPoint x="450" y="300" as="targetPoint" />
            <Array as="points">
              <mxPoint x="701" y="606" />
            </Array>
          </mxGeometry>
        </mxCell>
        <mxCell id="SE0FPp_Iixvpx1Xtsyte-14" value="numbers[i][j]&lt;br&gt;j++" style="shape=parallelogram;perimeter=parallelogramPerimeter;whiteSpace=wrap;html=1;fixedSize=1;" vertex="1" parent="WIyWlLk6GJQsqaUBKTNV-1">
          <mxGeometry x="380" y="561" width="150" height="90" as="geometry" />
        </mxCell>
        <mxCell id="SE0FPp_Iixvpx1Xtsyte-19" style="edgeStyle=orthogonalEdgeStyle;rounded=0;orthogonalLoop=1;jettySize=auto;html=1;" edge="1" parent="WIyWlLk6GJQsqaUBKTNV-1" source="SE0FPp_Iixvpx1Xtsyte-18">
          <mxGeometry relative="1" as="geometry">
            <mxPoint x="420" y="-30" as="targetPoint" />
            <Array as="points">
              <mxPoint x="160" y="150" />
              <mxPoint x="161" y="150" />
            </Array>
          </mxGeometry>
        </mxCell>
        <mxCell id="SE0FPp_Iixvpx1Xtsyte-18" value="i++" style="rounded=1;whiteSpace=wrap;html=1;" vertex="1" parent="WIyWlLk6GJQsqaUBKTNV-1">
          <mxGeometry x="100" y="360" width="120" height="60" as="geometry" />
        </mxCell>
        <mxCell id="SE0FPp_Iixvpx1Xtsyte-25" value="i=0" style="rounded=1;whiteSpace=wrap;html=1;" vertex="1" parent="WIyWlLk6GJQsqaUBKTNV-1">
          <mxGeometry x="1150" y="60" width="120" height="60" as="geometry" />
        </mxCell>
        <mxCell id="SE0FPp_Iixvpx1Xtsyte-26" style="edgeStyle=orthogonalEdgeStyle;rounded=0;orthogonalLoop=1;jettySize=auto;html=1;entryX=0.5;entryY=0;entryDx=0;entryDy=0;" edge="1" parent="WIyWlLk6GJQsqaUBKTNV-1" source="SE0FPp_Iixvpx1Xtsyte-27" target="SE0FPp_Iixvpx1Xtsyte-29">
          <mxGeometry relative="1" as="geometry" />
        </mxCell>
        <mxCell id="SE0FPp_Iixvpx1Xtsyte-47" value="true" style="edgeLabel;html=1;align=center;verticalAlign=middle;resizable=0;points=[];" vertex="1" connectable="0" parent="SE0FPp_Iixvpx1Xtsyte-26">
          <mxGeometry x="-0.0985" relative="1" as="geometry">
            <mxPoint as="offset" />
          </mxGeometry>
        </mxCell>
        <mxCell id="SE0FPp_Iixvpx1Xtsyte-48" value="false" style="edgeStyle=orthogonalEdgeStyle;rounded=0;orthogonalLoop=1;jettySize=auto;html=1;" edge="1" parent="WIyWlLk6GJQsqaUBKTNV-1" source="SE0FPp_Iixvpx1Xtsyte-27">
          <mxGeometry relative="1" as="geometry">
            <mxPoint x="1610" y="230" as="targetPoint" />
          </mxGeometry>
        </mxCell>
        <mxCell id="SE0FPp_Iixvpx1Xtsyte-27" value="i&amp;lt;row" style="rhombus;whiteSpace=wrap;html=1;" vertex="1" parent="WIyWlLk6GJQsqaUBKTNV-1">
          <mxGeometry x="1164" y="180" width="96" height="100" as="geometry" />
        </mxCell>
        <mxCell id="SE0FPp_Iixvpx1Xtsyte-28" style="edgeStyle=orthogonalEdgeStyle;rounded=0;orthogonalLoop=1;jettySize=auto;html=1;entryX=0.5;entryY=0;entryDx=0;entryDy=0;" edge="1" parent="WIyWlLk6GJQsqaUBKTNV-1" source="SE0FPp_Iixvpx1Xtsyte-25" target="SE0FPp_Iixvpx1Xtsyte-27">
          <mxGeometry relative="1" as="geometry" />
        </mxCell>
        <mxCell id="SE0FPp_Iixvpx1Xtsyte-29" value="j=0" style="rounded=1;whiteSpace=wrap;html=1;" vertex="1" parent="WIyWlLk6GJQsqaUBKTNV-1">
          <mxGeometry x="1164" y="360" width="120" height="60" as="geometry" />
        </mxCell>
        <mxCell id="SE0FPp_Iixvpx1Xtsyte-30" style="edgeStyle=orthogonalEdgeStyle;rounded=0;orthogonalLoop=1;jettySize=auto;html=1;entryX=0.5;entryY=0;entryDx=0;entryDy=0;" edge="1" parent="WIyWlLk6GJQsqaUBKTNV-1" source="SE0FPp_Iixvpx1Xtsyte-32" target="SE0FPp_Iixvpx1Xtsyte-41">
          <mxGeometry relative="1" as="geometry">
            <mxPoint x="1245" y="741" as="targetPoint" />
          </mxGeometry>
        </mxCell>
        <mxCell id="SE0FPp_Iixvpx1Xtsyte-45" value="true" style="edgeLabel;html=1;align=center;verticalAlign=middle;resizable=0;points=[];" vertex="1" connectable="0" parent="SE0FPp_Iixvpx1Xtsyte-30">
          <mxGeometry x="0.0078" y="4" relative="1" as="geometry">
            <mxPoint as="offset" />
          </mxGeometry>
        </mxCell>
        <mxCell id="SE0FPp_Iixvpx1Xtsyte-31" style="edgeStyle=orthogonalEdgeStyle;rounded=0;orthogonalLoop=1;jettySize=auto;html=1;" edge="1" parent="WIyWlLk6GJQsqaUBKTNV-1" source="SE0FPp_Iixvpx1Xtsyte-32" target="SE0FPp_Iixvpx1Xtsyte-37">
          <mxGeometry relative="1" as="geometry">
            <mxPoint x="960" y="570" as="targetPoint" />
          </mxGeometry>
        </mxCell>
        <mxCell id="SE0FPp_Iixvpx1Xtsyte-46" value="false" style="edgeLabel;html=1;align=center;verticalAlign=middle;resizable=0;points=[];" vertex="1" connectable="0" parent="SE0FPp_Iixvpx1Xtsyte-31">
          <mxGeometry x="0.1044" y="-1" relative="1" as="geometry">
            <mxPoint as="offset" />
          </mxGeometry>
        </mxCell>
        <mxCell id="SE0FPp_Iixvpx1Xtsyte-32" value="j&amp;lt;col" style="rhombus;whiteSpace=wrap;html=1;" vertex="1" parent="WIyWlLk6GJQsqaUBKTNV-1">
          <mxGeometry x="1170" y="510" width="150" height="120" as="geometry" />
        </mxCell>
        <mxCell id="SE0FPp_Iixvpx1Xtsyte-33" style="edgeStyle=orthogonalEdgeStyle;rounded=0;orthogonalLoop=1;jettySize=auto;html=1;entryX=0.438;entryY=0.088;entryDx=0;entryDy=0;entryPerimeter=0;" edge="1" parent="WIyWlLk6GJQsqaUBKTNV-1" source="SE0FPp_Iixvpx1Xtsyte-29" target="SE0FPp_Iixvpx1Xtsyte-32">
          <mxGeometry relative="1" as="geometry" />
        </mxCell>
        <mxCell id="SE0FPp_Iixvpx1Xtsyte-36" style="edgeStyle=orthogonalEdgeStyle;rounded=0;orthogonalLoop=1;jettySize=auto;html=1;" edge="1" parent="WIyWlLk6GJQsqaUBKTNV-1" source="SE0FPp_Iixvpx1Xtsyte-37">
          <mxGeometry relative="1" as="geometry">
            <mxPoint x="1210" y="150" as="targetPoint" />
            <Array as="points">
              <mxPoint x="950" y="330" />
              <mxPoint x="951" y="330" />
            </Array>
          </mxGeometry>
        </mxCell>
        <mxCell id="SE0FPp_Iixvpx1Xtsyte-37" value="i++" style="rounded=1;whiteSpace=wrap;html=1;" vertex="1" parent="WIyWlLk6GJQsqaUBKTNV-1">
          <mxGeometry x="890" y="540" width="120" height="60" as="geometry" />
        </mxCell>
        <mxCell id="SE0FPp_Iixvpx1Xtsyte-42" style="edgeStyle=orthogonalEdgeStyle;rounded=0;orthogonalLoop=1;jettySize=auto;html=1;" edge="1" parent="WIyWlLk6GJQsqaUBKTNV-1" source="SE0FPp_Iixvpx1Xtsyte-41" target="SE0FPp_Iixvpx1Xtsyte-43">
          <mxGeometry relative="1" as="geometry">
            <mxPoint x="1500" y="694.7058823529408" as="targetPoint" />
          </mxGeometry>
        </mxCell>
        <mxCell id="SE0FPp_Iixvpx1Xtsyte-52" value="false" style="edgeLabel;html=1;align=center;verticalAlign=middle;resizable=0;points=[];" vertex="1" connectable="0" parent="SE0FPp_Iixvpx1Xtsyte-42">
          <mxGeometry x="-0.2602" relative="1" as="geometry">
            <mxPoint as="offset" />
          </mxGeometry>
        </mxCell>
        <mxCell id="SE0FPp_Iixvpx1Xtsyte-53" style="edgeStyle=orthogonalEdgeStyle;rounded=0;orthogonalLoop=1;jettySize=auto;html=1;" edge="1" parent="WIyWlLk6GJQsqaUBKTNV-1" source="SE0FPp_Iixvpx1Xtsyte-41" target="SE0FPp_Iixvpx1Xtsyte-54">
          <mxGeometry relative="1" as="geometry">
            <mxPoint x="1267.5" y="979.9999999999995" as="targetPoint" />
          </mxGeometry>
        </mxCell>
        <mxCell id="SE0FPp_Iixvpx1Xtsyte-41" value="numbers[i][j]%2==0" style="rhombus;whiteSpace=wrap;html=1;" vertex="1" parent="WIyWlLk6GJQsqaUBKTNV-1">
          <mxGeometry x="1205" y="780" width="125" height="110" as="geometry" />
        </mxCell>
        <mxCell id="SE0FPp_Iixvpx1Xtsyte-44" style="edgeStyle=orthogonalEdgeStyle;rounded=0;orthogonalLoop=1;jettySize=auto;html=1;" edge="1" parent="WIyWlLk6GJQsqaUBKTNV-1" source="SE0FPp_Iixvpx1Xtsyte-43">
          <mxGeometry relative="1" as="geometry">
            <mxPoint x="1240" y="470" as="targetPoint" />
            <Array as="points">
              <mxPoint x="1490" y="470" />
            </Array>
          </mxGeometry>
        </mxCell>
        <mxCell id="SE0FPp_Iixvpx1Xtsyte-43" value="j++" style="rounded=1;whiteSpace=wrap;html=1;" vertex="1" parent="WIyWlLk6GJQsqaUBKTNV-1">
          <mxGeometry x="1430" y="629.9958823529405" width="120" height="60" as="geometry" />
        </mxCell>
        <mxCell id="SE0FPp_Iixvpx1Xtsyte-51" style="edgeStyle=orthogonalEdgeStyle;rounded=0;orthogonalLoop=1;jettySize=auto;html=1;entryX=0;entryY=0.5;entryDx=0;entryDy=0;" edge="1" parent="WIyWlLk6GJQsqaUBKTNV-1" source="SE0FPp_Iixvpx1Xtsyte-49" target="SE0FPp_Iixvpx1Xtsyte-50">
          <mxGeometry relative="1" as="geometry" />
        </mxCell>
        <mxCell id="SE0FPp_Iixvpx1Xtsyte-49" value="tổng các phần tử chia hết cho 2 là sum" style="rounded=1;whiteSpace=wrap;html=1;" vertex="1" parent="WIyWlLk6GJQsqaUBKTNV-1">
          <mxGeometry x="1610" y="200" width="120" height="60" as="geometry" />
        </mxCell>
        <mxCell id="SE0FPp_Iixvpx1Xtsyte-50" value="end" style="ellipse;whiteSpace=wrap;html=1;" vertex="1" parent="WIyWlLk6GJQsqaUBKTNV-1">
          <mxGeometry x="1870" y="200" width="120" height="80" as="geometry" />
        </mxCell>
        <mxCell id="SE0FPp_Iixvpx1Xtsyte-55" style="edgeStyle=orthogonalEdgeStyle;rounded=0;orthogonalLoop=1;jettySize=auto;html=1;" edge="1" parent="WIyWlLk6GJQsqaUBKTNV-1" source="SE0FPp_Iixvpx1Xtsyte-54">
          <mxGeometry relative="1" as="geometry">
            <mxPoint x="1490" y="829.9999999999995" as="targetPoint" />
          </mxGeometry>
        </mxCell>
        <mxCell id="SE0FPp_Iixvpx1Xtsyte-54" value="&#xa;&lt;div style=&quot;color: rgb(212, 212, 212); background-color: rgb(30, 30, 30); font-family: Consolas, &amp;quot;Courier New&amp;quot;, monospace; font-weight: normal; font-size: 14px; line-height: 19px;&quot;&gt;&lt;div&gt;&lt;span style=&quot;color: #d4d4d4;&quot;&gt;&amp;nbsp;&lt;/span&gt;&lt;span style=&quot;color: #c8c8c8;&quot;&gt;sum&lt;/span&gt;&lt;span style=&quot;color: #d4d4d4;&quot;&gt;+=&lt;/span&gt;&lt;span style=&quot;color: #c8c8c8;&quot;&gt;numbers&lt;/span&gt;&lt;span style=&quot;color: #d4d4d4;&quot;&gt;[&lt;/span&gt;&lt;span style=&quot;color: #c8c8c8;&quot;&gt;i&lt;/span&gt;&lt;span style=&quot;color: #d4d4d4;&quot;&gt;][&lt;/span&gt;&lt;span style=&quot;color: #c8c8c8;&quot;&gt;f&lt;/span&gt;&lt;span style=&quot;color: #d4d4d4;&quot;&gt;];&lt;/span&gt;&lt;/div&gt;&lt;/div&gt;&#xa;&#xa;" style="shape=parallelogram;perimeter=parallelogramPerimeter;whiteSpace=wrap;html=1;fixedSize=1;" vertex="1" parent="WIyWlLk6GJQsqaUBKTNV-1">
          <mxGeometry x="1207.5" y="949.9999999999995" width="120" height="60" as="geometry" />
        </mxCell>
      </root>
    </mxGraphModel>
  </diagram>
</mxfile>
